HIERARCHY
ROOT Model_Hips
{
	OFFSET 0.000000 96.915077 0.000000
	CHANNELS 6 Xposition Yposition Zposition Xrotation Yrotation Zrotation
	JOINT Model_Spine
	{
		OFFSET 0.000000 11.137703 -1.289900
		CHANNELS 3 Xrotation Yrotation Zrotation
		JOINT Model_Spine1
		{
			OFFSET 0.000000 12.993942 -1.504922
			CHANNELS 3 Xrotation Yrotation Zrotation
			JOINT Model_Spine2
			{
				OFFSET 0.000000 14.850220 -1.719911
				CHANNELS 3 Xrotation Yrotation Zrotation
				JOINT Model_Neck
				{
					OFFSET 0.000000 16.706543 -1.934903
					CHANNELS 3 Xrotation Yrotation Zrotation
					JOINT Model_Head
					{
						OFFSET 0.000000 10.471298 2.002100
						CHANNELS 3 Xrotation Yrotation Zrotation
						JOINT Model_HeadTop_End
						{
							OFFSET 0.000000 20.842606 3.985100
							CHANNELS 3 Xrotation Yrotation Zrotation
							End Site
							{
								OFFSET 0.000000 21.220154 0.000000
							}
						}
					}
				}
				JOINT Model_LeftShoulder
				{
					OFFSET 7.008500 14.768600 -1.919946
					CHANNELS 3 Xrotation Yrotation Zrotation
					JOINT Model_LeftArm
					{
						OFFSET 14.126271 -3.718048 0.029937
						CHANNELS 3 Xrotation Yrotation Zrotation
						JOINT Model_LeftForeArm
						{
							OFFSET 28.282801 0.000000 0.000000
							CHANNELS 3 Xrotation Yrotation Zrotation
							JOINT Model_LeftHand
							{
								OFFSET 26.204689 0.000000 0.000000
								CHANNELS 3 Xrotation Yrotation Zrotation
								End Site
								{
									OFFSET 26.204704 0.000000 0.000000
								}
							}
						}
					}
				}
				JOINT Model_RightShoulder
				{
					OFFSET -7.008500 14.768555 -1.949840
					CHANNELS 3 Xrotation Yrotation Zrotation
					JOINT Model_RightArm
					{
						OFFSET -14.126281 -3.718018 -0.029932
						CHANNELS 3 Xrotation Yrotation Zrotation
						JOINT Model_RightForeArm
						{
							OFFSET -28.283798 0.000000 -0.000001
							CHANNELS 3 Xrotation Yrotation Zrotation
							JOINT Model_RightHand
							{
								OFFSET -26.204193 0.000000 -0.000001
								CHANNELS 3 Xrotation Yrotation Zrotation
								End Site
								{
									OFFSET -26.204208 0.000000 -0.000001
								}
							}
						}
					}
				}
			}
		}
	}
	JOINT Model_LeftUpLeg
	{
		OFFSET 8.327700 -6.193199 -0.402800
		CHANNELS 3 Xrotation Yrotation Zrotation
		JOINT Model_LeftLeg
		{
			OFFSET 0.735802 -42.108742 -0.610721
			CHANNELS 3 Xrotation Yrotation Zrotation
			JOINT Model_LeftFoot
			{
				OFFSET -0.735806 -36.833748 -0.172876
				CHANNELS 3 Xrotation Yrotation Zrotation
				JOINT Model_LeftToeBase
				{
					OFFSET -0.565857 -11.977769 16.297714
					CHANNELS 3 Xrotation Yrotation Zrotation
					JOINT Model_LeftToe_End
					{
						OFFSET -0.111712 -0.312793 7.857784
						CHANNELS 3 Xrotation Yrotation Zrotation
						End Site
						{
							OFFSET -0.111712 -0.312793 7.857784
						}
					}
				}
			}
		}
	}
	JOINT Model_RightUpLeg
	{
		OFFSET -8.327700 -6.193199 -0.516500
		CHANNELS 3 Xrotation Yrotation Zrotation
		JOINT Model_RightLeg
		{
			OFFSET -0.735785 -42.108738 -0.434061
			CHANNELS 3 Xrotation Yrotation Zrotation
			JOINT Model_RightFoot
			{
				OFFSET 0.735776 -36.833748 -0.021630
				CHANNELS 3 Xrotation Yrotation Zrotation
				JOINT Model_RightToeBase
				{
					OFFSET 0.565817 -11.977745 15.903093
					CHANNELS 3 Xrotation Yrotation Zrotation
					JOINT Model_RightToe_End
					{
						OFFSET 0.111702 -0.312791 7.811342
						CHANNELS 3 Xrotation Yrotation Zrotation
						End Site
						{
							OFFSET 0.111702 -0.312791 7.811342
						}
					}
				}
			}
		}
	}
}
MOTION
Frames: 9
Frame Time: 0.016667
-0.295571 91.084511 0.141207 -6.071189 -42.878312 -4.055760 5.827994 4.493976 -1.178384 11.836551 9.037620 -3.083973 11.836550 9.037621 -3.083975 -1.434799 -0.422558 0.079382 -1.434799 -0.422562 0.079389 0.000002 -0.000000 -0.000001 1.392449 -0.696087 -7.877990 -14.260103 2.394333 -63.277106 9.865049 -47.524910 5.927925 -0.000002 -0.000002 0.000000 1.410903 9.461490 9.792721 1.220064 -24.270722 60.532920 -6.660681 41.858401 8.043849 -0.000001 0.000000 -0.000001 -24.779836 6.259147 13.888897 36.178231 -14.802637 -0.284477 -8.842302 1.037769 -6.906191 -2.319086 -3.217020 0.802953 0.000000 0.000000 -0.000000 -3.536416 -14.217858 -14.395512 35.985962 -8.642070 -0.305957 -24.792910 -4.687458 16.505038 -1.784964 -0.356720 0.333181 0.000000 -0.000002 0.000000 
-0.341717 90.125465 -0.135552 -1.836295 -40.866094 -1.849979 5.462477 3.987235 -1.038600 11.078930 8.057802 -2.823207 11.078936 8.057813 -2.823210 -1.605576 0.039675 -0.028837 -1.605562 0.039671 -0.028833 0.000001 -0.000000 -0.000000 1.476355 -0.721361 -9.246936 -14.741329 2.121235 -61.872922 9.882740 -48.712329 5.741809 0.000003 0.000003 -0.000000 1.375042 9.543999 9.725468 1.388662 -23.976126 60.783718 -6.659418 42.841467 8.000148 -0.000000 0.000001 -0.000000 -30.603615 4.829802 14.689240 39.693965 -17.043448 -0.729827 -9.682164 0.920857 -5.936150 -2.473208 -2.767058 0.693578 -0.000000 -0.000003 -0.000000 -7.964929 -14.091478 -13.535804 40.382257 -9.924483 -0.516751 -27.111755 -5.166637 16.825100 -1.212244 1.683637 0.611333 0.000000 0.000000 0.000000 
-0.350080 89.002953 -0.391253 2.677236 -38.413076 0.324329 5.052124 3.424777 -0.907667 10.231854 6.957398 -2.579612 10.231853 6.957399 -2.579610 -1.828807 0.556984 -0.116424 -1.828790 0.556975 -0.116417 -0.000000 -0.000001 0.000000 1.565843 -0.708998 -10.736319 -15.297459 1.814184 -60.410817 9.780372 -49.914824 5.571599 0.000001 0.000000 -0.000001 1.321816 9.731042 9.815440 1.435986 -23.685337 60.908478 -6.760324 43.804185 7.994638 0.000002 0.000001 -0.000001 -36.963980 3.430031 15.229064 43.109456 -19.260063 -1.249494 -10.502165 0.740728 -4.763192 -2.354325 -2.658269 0.620650 0.000001 -0.000000 -0.000000 -13.021599 -14.010212 -12.818062 45.381464 -10.556733 -0.830837 -29.648635 -5.569720 16.673414 -0.906518 3.721709 1.294522 0.000000 -0.000001 0.000000 
-0.326280 87.774811 -0.620747 7.147036 -35.706228 2.362475 4.628463 2.841205 -0.796728 9.358986 5.806123 -2.360944 9.358980 5.806129 -2.360944 -2.073520 1.103781 -0.213579 -2.073544 1.103776 -0.213580 0.000003 -0.000003 0.000000 1.657910 -0.686806 -12.297975 -15.904719 1.468954 -58.922191 9.561528 -51.073057 5.369373 0.000001 0.000001 -0.000001 1.256818 9.983413 10.016731 1.379508 -23.393955 60.935628 -6.944794 44.738559 8.019294 -0.000002 -0.000000 -0.000001 -43.539608 2.196124 15.353381 46.310073 -21.261629 -1.760900 -10.907851 0.538496 -3.702474 -2.196562 -2.888245 0.565923 0.000000 0.000002 0.000000 -18.317201 -13.887298 -12.411960 50.542686 -10.527392 -1.123318 -32.341728 -5.794222 15.883041 -1.089269 5.584165 2.355382 0.000000 -0.000002 0.000000 
-0.260685 86.451744 -0.800220 11.462991 -32.793681 4.220065 4.206681 2.249600 -0.714339 8.491249 4.635704 -2.176226 8.491248 4.635697 -2.176228 -2.334495 1.664924 -0.330125 -2.334482 1.664926 -0.330132 0.000001 0.000000 -0.000001 1.749298 -0.665716 -13.929159 -16.577175 1.073733 -57.416045 9.184337 -52.130295 5.096283 -0.000000 0.000001 0.000000 1.178882 10.301874 10.340433 1.188000 -23.096623 60.844855 -7.224791 45.632648 8.069390 0.000004 -0.000000 -0.000000 -50.236601 1.261066 14.953294 49.451574 -22.780296 -2.187316 -11.102170 0.281989 -2.467824 -1.943664 -3.571129 0.556138 0.000000 0.000002 -0.000000 -23.703413 -13.685082 -12.403323 55.757997 -9.869970 -1.335822 -35.085224 -5.816876 14.532052 -2.038233 7.169858 3.681489 -0.000000 -0.000004 0.000000 
-0.151120 85.071709 -0.900597 15.465751 -29.803005 5.855625 3.810783 1.672961 -0.666700 7.677608 3.499114 -2.033925 7.677613 3.499104 -2.033925 -2.600868 2.212295 -0.478615 -2.600885 2.212281 -0.478613 -0.000003 0.000001 -0.000001 1.834555 -0.661433 -15.621671 -17.313604 0.633442 -55.900601 8.620587 -53.051841 4.708792 -0.000000 0.000003 -0.000001 1.088896 10.675828 10.769871 0.851282 -22.784350 60.632054 -7.585198 46.499125 8.133717 -0.000002 0.000000 -0.000001 -56.775001 0.754582 14.049615 52.524571 -23.677296 -2.446561 -11.218237 0.003789 -1.236683 -1.636437 -4.729248 0.627047 0.000000 -0.000001 0.000000 -28.937114 -13.355132 -12.874685 60.875174 -8.484112 -1.424172 -37.747471 -5.579310 12.677035 -3.994197 8.297052 5.127108 0.000000 0.000001 0.000000 
0.034728 83.690483 -0.897099 18.989007 -26.925898 7.240356 3.468264 1.140283 -0.653854 6.974288 2.461389 -1.940140 6.974303 2.461380 -1.940139 -2.858743 2.709931 -0.667574 -2.858719 2.709929 -0.667576 0.000000 0.000000 -0.000000 1.907482 -0.687412 -17.362691 -18.088617 0.183719 -54.374521 7.867431 -53.860153 4.174760 -0.000001 -0.000001 0.000000 0.990397 11.087331 11.260988 0.390269 -22.446326 60.309901 -7.977788 47.392074 8.197589 -0.000001 -0.000000 -0.000000 -64.515494 0.508514 12.657226 57.966005 -23.376042 -2.435850 -8.148703 -0.344392 0.290738 -6.170308 -6.765744 0.775706 -0.000000 0.000000 -0.000000 -33.730114 -12.739698 -14.100082 65.981246 -4.664712 -1.307427 -40.421930 -4.436899 9.024755 -7.891963 8.213110 6.896886 0.000000 0.000001 0.000000 
0.289170 82.375542 -0.758064 21.906102 -24.388898 8.366023 3.202578 0.688860 -0.674711 6.428833 1.585908 -1.897213 6.428843 1.585907 -1.897217 -3.097072 3.123806 -0.894675 -3.097078 3.123810 -0.894675 0.000000 -0.000000 0.000000 1.962977 -0.748162 -19.138639 -18.843150 -0.198545 -52.818836 6.954590 -54.659962 3.488599 -0.000004 0.000002 -0.000002 0.889455 11.515999 11.751250 -0.139118 -22.073162 59.902583 -8.327622 48.416390 8.249680 -0.000002 -0.000000 -0.000000 -72.569988 0.764602 11.034438 64.388958 -22.136061 -2.145168 -2.383797 -0.535307 1.882785 -14.590379 -8.984820 0.960159 0.000001 -0.000005 -0.000000 -37.770608 -11.817423 -16.047149 70.631710 1.520804 -0.980382 -42.239164 -2.381601 4.065381 -12.637223 6.974319 8.123401 0.000000 0.000001 0.000000 
0.520526 81.221390 -0.409878 24.165163 -22.389449 9.234595 3.024773 0.344936 -0.720788 6.063392 0.920276 -1.902790 6.063387 0.920279 -1.902789 -3.313498 3.431226 -1.142636 -3.313477 3.431230 -1.142645 0.000004 0.000001 -0.000000 1.998986 -0.834268 -20.926441 -19.474874 -0.393665 -51.192831 5.943392 -55.638899 2.676715 -0.000002 -0.000001 0.000001 0.793250 11.942237 12.174723 -0.650315 -21.660533 59.436730 -8.551737 49.723552 8.289259 0.000001 -0.000000 0.000001 -78.273449 1.737576 9.735902 68.570509 -21.109198 -1.722787 1.336486 -0.561563 3.014175 -20.090904 -10.807747 1.434909 -0.000001 -0.000001 -0.000000 -40.839081 -10.938139 -18.003716 74.077889 6.636316 -0.604009 -42.743754 -0.770504 0.657378 -16.087319 6.324733 8.158326 0.000000 -0.000000 0.000000 
